<?xml version="1.0" encoding="UTF-8" standalone="no"?>
<!-- Created with Inkscape (http://www.inkscape.org/) -->

<svg
   width="20.066698mm"
   height="17.03817mm"
   viewBox="0 0 20.066698 17.03817"
   version="1.1"
   id="svg1"
   xml:space="preserve"
   inkscape:export-filename="shell.svg"
   inkscape:export-xdpi="96"
   inkscape:export-ydpi="96"
   sodipodi:docname="shell.svg"
   inkscape:version="1.4 (e7c3feb100, 2024-10-09)"
   xmlns:inkscape="http://www.inkscape.org/namespaces/inkscape"
   xmlns:sodipodi="http://sodipodi.sourceforge.net/DTD/sodipodi-0.dtd"
   xmlns:xlink="http://www.w3.org/1999/xlink"
   xmlns="http://www.w3.org/2000/svg"
   xmlns:svg="http://www.w3.org/2000/svg"><sodipodi:namedview
     id="namedview1"
     pagecolor="#505050"
     bordercolor="#eeeeee"
     borderopacity="1"
     inkscape:showpageshadow="0"
     inkscape:pageopacity="0"
     inkscape:pagecheckerboard="0"
     inkscape:deskcolor="#505050"
     inkscape:document-units="mm"
     inkscape:zoom="9.4252279"
     inkscape:cx="31.564224"
     inkscape:cy="30.715438"
     inkscape:window-width="1920"
     inkscape:window-height="962"
     inkscape:window-x="1920"
     inkscape:window-y="32"
     inkscape:window-maximized="1"
     inkscape:current-layer="svg1"><inkscape:page
       x="0"
       y="0"
       width="20.066698"
       height="17.03817"
       id="page2"
       margin="0"
       bleed="0" /></sodipodi:namedview><defs
     id="defs1"><linearGradient
       id="linearGradient47"
       inkscape:collect="always"><stop
         style="stop-color:#cabead;stop-opacity:1;"
         offset="0"
         id="stop47" /><stop
         style="stop-color:#584226;stop-opacity:1;"
         offset="1"
         id="stop48" /></linearGradient><linearGradient
       id="linearGradient42"
       inkscape:collect="always"><stop
         style="stop-color:#eae6e5;stop-opacity:0;"
         offset="0"
         id="stop44" /><stop
         style="stop-color:#eae6e5;stop-opacity:1;"
         offset="0.51069212"
         id="stop42" /><stop
         style="stop-color:#eae6e5;stop-opacity:0;"
         offset="1"
         id="stop43" /></linearGradient><linearGradient
       id="linearGradient38"
       inkscape:collect="always"><stop
         style="stop-color:#502c0f;stop-opacity:1;"
         offset="0.04887455"
         id="stop37" /><stop
         style="stop-color:#502c0f;stop-opacity:0;"
         offset="0.46910772"
         id="stop38" /><stop
         style="stop-color:#502c0f;stop-opacity:1;"
         offset="0.91887647"
         id="stop39" /></linearGradient><linearGradient
       id="linearGradient34"
       inkscape:collect="always"><stop
         style="stop-color:#502c0f;stop-opacity:1;"
         offset="0"
         id="stop34" /><stop
         style="stop-color:#502c0f;stop-opacity:0;"
         offset="0.48211119"
         id="stop35" /><stop
         style="stop-color:#502c0f;stop-opacity:1;"
         offset="1"
         id="stop36" /></linearGradient><linearGradient
       id="linearGradient29"
       inkscape:collect="always"><stop
         style="stop-color:#502c0f;stop-opacity:1;"
         offset="0"
         id="stop29" /><stop
         style="stop-color:#502c0f;stop-opacity:0;"
         offset="0.75622261"
         id="stop30" /></linearGradient><linearGradient
       inkscape:collect="always"
       xlink:href="#linearGradient29"
       id="linearGradient30"
       x1="79.879517"
       y1="125.89231"
       x2="81.769524"
       y2="128.31271"
       gradientUnits="userSpaceOnUse"
       gradientTransform="matrix(0.65289748,0.79717747,-0.79717747,0.65289748,124.58778,-18.607968)" /><linearGradient
       inkscape:collect="always"
       xlink:href="#linearGradient38"
       id="linearGradient32"
       gradientUnits="userSpaceOnUse"
       gradientTransform="matrix(-0.36317573,-1.2150341,-1.2757455,0.46901571,265.08381,159.84079)"
       x1="82.413376"
       y1="124.66149"
       x2="83.837082"
       y2="126.4339" /><linearGradient
       inkscape:collect="always"
       xlink:href="#linearGradient29"
       id="linearGradient33"
       gradientUnits="userSpaceOnUse"
       x1="79.879517"
       y1="125.89231"
       x2="81.769524"
       y2="128.31271"
       gradientTransform="matrix(-0.58736894,-0.71716816,-0.75325009,0.61692044,213.96318,102.05809)" /><linearGradient
       inkscape:collect="always"
       xlink:href="#linearGradient34"
       id="linearGradient35"
       x1="73.196205"
       y1="118.67651"
       x2="80.566765"
       y2="118.67651"
       gradientUnits="userSpaceOnUse"
       spreadMethod="reflect"
       gradientTransform="matrix(0.49388286,0.60302314,-0.79717747,0.65289747,136.81412,-3.6797845)" /><linearGradient
       inkscape:collect="always"
       xlink:href="#linearGradient38"
       id="linearGradient39"
       gradientUnits="userSpaceOnUse"
       gradientTransform="matrix(1.1196502,0.59547286,-0.71120067,1.1583158,77.501898,-69.057557)"
       x1="82.413376"
       y1="124.66149"
       x2="83.837082"
       y2="126.4339" /><linearGradient
       inkscape:collect="always"
       xlink:href="#linearGradient42"
       id="linearGradient43"
       x1="77.823898"
       y1="121.66305"
       x2="79.894218"
       y2="121.57581"
       gradientUnits="userSpaceOnUse"
       gradientTransform="matrix(0.37371123,0.96026399,-0.96026399,0.37371123,166.76396,2.7462441)" /><linearGradient
       inkscape:collect="always"
       xlink:href="#linearGradient42"
       id="linearGradient44"
       gradientUnits="userSpaceOnUse"
       gradientTransform="matrix(-0.86779907,-0.55560041,-0.55560041,0.86779907,212.11804,58.10527)"
       x1="77.823898"
       y1="121.66305"
       x2="79.894218"
       y2="121.57581" /><linearGradient
       inkscape:collect="always"
       xlink:href="#linearGradient42"
       id="linearGradient45"
       gradientUnits="userSpaceOnUse"
       gradientTransform="matrix(0.03748159,0.88736454,-0.86983699,-0.05424803,181.59712,64.510131)"
       x1="77.823898"
       y1="121.66305"
       x2="79.894218"
       y2="121.57581" /><linearGradient
       inkscape:collect="always"
       xlink:href="#linearGradient42"
       id="linearGradient46"
       gradientUnits="userSpaceOnUse"
       gradientTransform="matrix(-0.86258153,-0.21159825,-0.11821333,0.86347257,154.67979,31.562414)"
       x1="77.823898"
       y1="121.66305"
       x2="79.894218"
       y2="121.57581" /><linearGradient
       inkscape:collect="always"
       xlink:href="#linearGradient47"
       id="linearGradient48"
       x1="78.098724"
       y1="129.60211"
       x2="81.052963"
       y2="129.06177"
       gradientUnits="userSpaceOnUse"
       gradientTransform="matrix(0.65289748,0.79717747,-0.79717747,0.65289748,124.38241,-18.265137)" /><linearGradient
       inkscape:collect="always"
       xlink:href="#linearGradient47"
       id="linearGradient49"
       gradientUnits="userSpaceOnUse"
       x1="78.098724"
       y1="129.60211"
       x2="81.052963"
       y2="129.06177"
       gradientTransform="matrix(-0.58246286,-0.85000237,-0.85000237,0.58246286,225.70738,116.95589)" /></defs><g
     inkscape:groupmode="layer"
     id="layer2"
     inkscape:label="Real"
     transform="translate(-66.628146,-114.0725)"
     style="fill:#d9d3c5;fill-opacity:1;stroke:#d6d5d0;stroke-opacity:1"><path
       style="fill:url(#linearGradient48);fill-opacity:1;stroke:#000000;stroke-width:0;stroke-dasharray:none;stroke-opacity:1"
       d="m 72.394715,130.87919 c 2.422988,-0.32172 3.472593,-1.2382 3.472593,-1.2382 l -4.786082,-1.73005 c 0,0 0.383292,1.95892 1.313489,2.96825 z"
       id="path47"
       sodipodi:nodetypes="cccc" /><path
       style="fill:url(#linearGradient49);fill-opacity:1;stroke:#000000;stroke-width:0;stroke-dasharray:none;stroke-opacity:1"
       d="m 67.972081,125.10064 c 0.98733,-2.23596 2.161046,-2.98695 2.161046,-2.98695 l 0.320663,5.07906 c 0,0 -1.77323,-0.91649 -2.481709,-2.09211 z"
       id="path48"
       sodipodi:nodetypes="cccc" /><path
       style="fill:#d9d3c5;fill-opacity:1;stroke:#d6d5d0;stroke-width:0;stroke-dasharray:none;stroke-opacity:1"
       d="m 71.339756,128.1722 c 0.368657,0.10031 4.926777,1.7272 6.688357,2.32871 1.761584,0.60154 3.252239,0.83628 3.376957,-0.31707 0.06688,-0.61843 0.943445,-0.12655 2.729481,-2.4625 1.943337,-2.54166 0.238097,-2.10446 0.602355,-2.89841 0.453677,-0.98885 0.707982,-1.40499 0.331034,-3.71585 -0.376949,-2.31086 -2.012772,-2.62392 -2.420017,-3.13998 -0.407231,-0.51609 0.455594,-1.03169 -2.173323,-2.5352 -2.628893,-1.50355 -3.297331,-1.26712 -4.160846,-0.89345 -0.786667,0.34042 -0.288041,-1.07379 -2.449972,-0.0489 -2.161935,1.0252 -2.197382,1.35279 -3.081048,2.65252 -0.286424,0.56026 -1.166975,0.003 -0.973412,2.12731 0.193566,2.12405 0.529492,7.2181 0.483621,7.62437 -0.04587,0.40624 0.678166,1.17768 1.046822,1.27812 z"
       id="path4"
       sodipodi:nodetypes="zzssszzzszczzz" /><path
       style="fill:url(#linearGradient30);stroke:#000000;stroke-width:0;stroke-dasharray:none;stroke-opacity:1"
       d="m 81.166091,130.34386 c 0.17993,-0.0316 0.410577,-0.31873 -0.0088,-0.73784 -0.41944,-0.41912 -9.922386,-1.80553 -9.922386,-1.80553 l 0.01503,0.1265 c 0,0 5.444446,1.48792 7.218692,1.88129 1.774236,0.39338 1.670953,0.51339 2.038264,0.5285 0.367321,0.0148 0.65924,0.007 0.65924,0.007 z"
       id="path5"
       sodipodi:nodetypes="szcczzs" /><path
       style="fill:url(#linearGradient32);fill-opacity:1;stroke:#000000;stroke-width:0;stroke-dasharray:none;stroke-opacity:1"
       d="m 75.72577,114.65049 c 0.165561,-0.17808 0.638526,-0.2525 0.773544,0.47004 0.134973,0.72256 -5.633158,12.05457 -5.633158,12.05457 L 70.7118,127.1023 c 0,0 2.711437,-6.95648 3.59879,-9.15228 0.887343,-2.19579 0.684613,-2.15712 0.938442,-2.57032 0.253841,-0.41319 0.476706,-0.72911 0.476706,-0.72911 z"
       id="path31"
       sodipodi:nodetypes="szcczzss" /><path
       style="fill:url(#linearGradient33);stroke:#000000;stroke-width:0;stroke-dasharray:none;stroke-opacity:1"
       d="m 70.409727,117.62137 c 0.06534,-0.15767 0.372101,-0.32051 0.665358,0.1254 0.293273,0.44588 -0.452672,9.31933 -0.452672,9.31933 l -0.148024,-0.0338 c 0,0 -0.138534,-5.21996 -0.131632,-6.88677 0.0069,-1.66683 -0.122713,-1.59254 -0.0613,-1.92705 0.06141,-0.33453 0.128299,-0.59721 0.128299,-0.59721 z"
       id="path32"
       sodipodi:nodetypes="szcczzss" /><path
       style="fill:url(#linearGradient35);stroke:#000000;stroke-width:0;stroke-dasharray:none;stroke-opacity:1"
       d="m 82.665423,118.02439 c 0.257938,0.34764 0.730708,0.19073 0.980037,0.81725 0.249326,0.62648 -12.530971,8.57762 -12.530971,8.57762 l -0.06336,-0.0855 c 0,0 10.730775,-10.93837 11.246955,-10.2632 0.516199,0.67515 0.109433,0.60619 0.367349,0.95383 z"
       id="path33"
       sodipodi:nodetypes="zzcczz" /><path
       style="fill:url(#linearGradient39);fill-opacity:1;stroke:#000000;stroke-width:0;stroke-dasharray:none;stroke-opacity:1"
       d="m 84.49396,125.49252 c 0.207215,-0.12722 0.373363,-0.57625 -0.308393,-0.85099 -0.681787,-0.2747 -13.00226,2.90879 -13.00226,2.90879 l 0.04099,0.16568 c 0,0 7.428417,-1.0489 9.756017,-1.48618 2.327592,-0.43727 2.249731,-0.24614 2.704847,-0.41357 0.45512,-0.16745 0.80876,-0.32369 0.80876,-0.32369 z"
       id="path39"
       sodipodi:nodetypes="szcczzss" /><path
       style="fill:url(#linearGradient43);stroke:#000000;stroke-width:0;stroke-dasharray:none;stroke-opacity:1"
       d="m 85.233396,123.15199 c -0.08803,1.11833 -0.460873,0.82101 -1.24482,0.98858 -0.783951,0.16756 -12.821854,3.38611 -12.821854,3.38611 l -0.01624,-0.0471 c 0,0 9.05572,-5.5431 11.002655,-7.08875 1.946925,-1.54565 2.662708,-0.13138 2.800196,0.27906 0,0 0.368106,1.36382 0.280074,2.48215 z"
       id="path40"
       sodipodi:nodetypes="zzcczzz" /><path
       style="fill:url(#linearGradient44);stroke:#000000;stroke-width:0;stroke-dasharray:none;stroke-opacity:1"
       d="m 79.140601,114.74652 c -1.054354,-0.53507 -2.028653,-0.14456 -2.347408,0.59101 -0.318752,0.73557 -5.846224,11.90325 -5.846224,11.90325 l 0.04302,0.0253 c 0,0 7.21882,-7.78594 9.117803,-9.39013 1.898977,-1.6042 1.041335,-2.04278 0.666018,-2.25843 0,0 -0.578867,-0.33585 -1.633221,-0.87092 z"
       id="path44"
       sodipodi:nodetypes="zzcczzz" /><path
       style="fill:url(#linearGradient45);stroke:#000000;stroke-width:0;stroke-dasharray:none;stroke-opacity:1"
       d="m 82.211561,129.53906 c -1.149993,0.78487 -1.16306,-0.076 -1.835717,-0.22796 -0.67268,-0.15203 -9.141187,-1.53073 -9.141187,-1.53073 l -2.06e-4,-0.0428 c 0,0 8.793925,-0.82269 10.772044,-1.33002 1.978109,-0.50731 3.304133,-0.54135 2.735176,0.37406 -0.568955,0.91539 -1.380154,1.97261 -2.530147,2.75748 z"
       id="path45"
       sodipodi:nodetypes="zzcczzz" /><path
       style="fill:url(#linearGradient46);stroke:#000000;stroke-width:0;stroke-dasharray:none;stroke-opacity:1"
       d="m 71.342269,116.18574 c -1.005841,1.07095 -0.154689,1.15523 -0.13822,1.84466 0.01651,0.68944 -0.554802,9.05254 -0.554802,9.05254 l 0.04195,0.008 c 0,0 2.793657,-8.24835 3.680815,-10.08774 0.887153,-1.83936 1.157631,-3.15386 0.172241,-2.75525 -0.98539,0.39859 -2.196131,0.86624 -3.201973,1.93719 z"
       id="path46"
       sodipodi:nodetypes="zzcczzz" /></g></svg>
