<?xml version="1.0" encoding="UTF-8" standalone="no"?>
<!-- Created with Inkscape (http://www.inkscape.org/) -->

<svg
   width="53.538971mm"
   height="55.593903mm"
   viewBox="0 0 53.538971 55.593903"
   version="1.1"
   id="svg1"
   xml:space="preserve"
   inkscape:version="1.4 (e7c3feb100, 2024-10-09)"
   sodipodi:docname="totem.svg"
   xmlns:inkscape="http://www.inkscape.org/namespaces/inkscape"
   xmlns:sodipodi="http://sodipodi.sourceforge.net/DTD/sodipodi-0.dtd"
   xmlns="http://www.w3.org/2000/svg"
   xmlns:svg="http://www.w3.org/2000/svg"><sodipodi:namedview
     id="namedview1"
     pagecolor="#505050"
     bordercolor="#eeeeee"
     borderopacity="1"
     inkscape:showpageshadow="0"
     inkscape:pageopacity="0"
     inkscape:pagecheckerboard="0"
     inkscape:deskcolor="#505050"
     inkscape:document-units="mm"
     inkscape:zoom="1.612573"
     inkscape:cx="8.371714"
     inkscape:cy="124.33546"
     inkscape:window-width="1920"
     inkscape:window-height="994"
     inkscape:window-x="3840"
     inkscape:window-y="0"
     inkscape:window-maximized="1"
     inkscape:current-layer="layer1" /><defs
     id="defs1" /><g
     inkscape:label="Layer 1"
     inkscape:groupmode="layer"
     id="layer1"
     transform="translate(-17.50342,-11.167626)"><ellipse
       style="fill:#e1e1e1;stroke-width:0.264583;fill-opacity:1"
       id="path2"
       cx="44.305714"
       cy="30.092764"
       rx="26.701017"
       ry="18.590235" /><path
       style="fill:#d2d2d2;stroke-width:0.264583;fill-opacity:1"
       d="M 44.30342,66.753478 C 25.92557,66.369748 18.871128,55.578903 18.444266,47.567626 L 17.50342,29.909968 c 0,0 1.912356,18.472 26.8,18.69538 z"
       id="path5"
       sodipodi:nodetypes="csccc" /><path
       style="fill:#f9f9f9;stroke-width:0.264583"
       id="path1"
       sodipodi:type="arc"
       sodipodi:cx="44.060001"
       sodipodi:cy="26.085714"
       sodipodi:rx="22.762373"
       sodipodi:ry="14.918088"
       sodipodi:start="0"
       sodipodi:end="6.2788172"
       sodipodi:arc-type="slice"
       d="M 66.822374,26.085714 A 22.762373,14.918088 0 0 1 44.084858,41.003793 22.762373,14.918088 0 0 1 21.297683,26.118296 22.762373,14.918088 0 0 1 43.98543,11.167706 22.762373,14.918088 0 0 1 66.822157,26.020551 l -22.762156,0.06516 z" /><path
       style="fill:#d2d2d2;stroke-width:0.264583;fill-opacity:1"
       d="m 44.30342,66.735626 c 18.37785,-0.38373 25.388647,-11.156292 25.80748,-19.168 l 0.93149,-17.818158 c 0,0 -1.85133,18.64055 -26.73897,18.86393 z"
       id="path5-6"
       sodipodi:nodetypes="csccc" /></g></svg>
